<svg width="500" height="500" xmlns="http://www.w3.org/2000/svg" preserveAspectRatio="xMidYMid meet">
  <g fill="#ffffff">
    <path d="m240.27911,498.72936c-28.72814,-5.34627 -52.36766,-25.18543 -72.65772,-60.93457c-8.37367,-14.75055 -18.48649,-38.71213 -18.48649,-43.73634c0,-7.14983 7.14983,-12.4961 13.78435,-10.30606c4.18684,1.35267 5.86157,3.41388 8.43809,10.17723c11.0146,28.79255 22.99539,48.88937 38.26124,63.89757c9.59752,9.46869 18.10002,14.87937 28.40608,18.16443c4.12242,1.28826 6.11922,1.4815 13.84877,1.4815c8.11602,-0.06441 9.5331,-0.19324 14.17083,-1.86797c16.42528,-5.66833 30.33846,-17.97119 44.44488,-39.29185c4.31566,-6.5057 5.66833,-8.05161 8.05161,-9.27545c7.40748,-3.80036 16.10322,1.93239 15.33026,10.11282c-0.70854,7.08542 -18.55091,30.72494 -31.30465,41.41747c-16.61852,13.97759 -31.30465,20.16123 -49.40467,20.80536c-5.21744,0.19324 -9.40428,0 -12.88257,-0.64413z"/>
    <path d="m343.3397,421.75598c-27.43988,-2.12562 -63.51109,-10.95019 -93.72072,-23.05981c-55.33065,-22.15803 -104.92856,-54.0424 -144.80013,-93.14101c-15.26585,-14.87937 -17.71354,-18.61532 -16.23204,-24.21924c1.73915,-6.5057 8.37367,-9.98399 14.36407,-7.47189c1.15943,0.45089 7.9872,6.76335 15.26585,13.97759c18.55091,18.48649 35.5559,32.46409 57.71393,47.40787c51.14382,34.39647 107.37625,56.94098 159.93715,64.0908c13.65553,1.80356 36.32886,1.9968 47.08581,0.32206c8.63132,-1.35267 15.5235,-3.0274 22.0292,-5.34627c7.34307,-2.64093 7.08542,-2.38328 5.86157,-5.60392c-0.77295,-1.93239 -1.09502,-4.89538 -1.09502,-10.75695c0,-7.21424 0.19324,-8.5025 1.73915,-12.43168c4.70214,-11.98079 14.17083,-20.09682 26.5381,-22.67333c18.16443,-3.80036 36.5221,7.72954 41.22424,25.89397c1.22384,4.76655 1.22384,13.07581 0,17.90678c-2.44769,9.40428 -10.30606,18.93738 -19.0018,23.05981c-9.91958,4.70214 -21.38507,4.83097 -30.72494,0.32206l-3.34947,-1.61032l-4.70214,2.31886c-8.69574,4.25125 -19.90358,7.53631 -32.72174,9.72634c-9.21104,1.54591 -33.17263,2.25445 -45.41107,1.28826zm107.50508,-31.30465c8.37367,-4.25125 10.37047,-14.68613 4.18684,-21.77155c-8.56691,-9.72634 -23.76835,-4.18684 -23.76835,8.76015c0,2.06121 0.38648,4.70214 0.90178,5.86157c1.09502,2.64093 6.24805,7.40748 8.56691,7.92278c0.96619,0.19324 2.12562,0.45089 2.44769,0.64413c1.15943,0.38648 5.60392,-0.38648 7.66513,-1.41708z"/>
    <path d="m48.90847,412.48053c-12.30286,-2.83417 -22.99539,-13.5267 -26.08721,-26.15162c-1.09502,-4.5089 -1.09502,-12.23845 0,-16.74735c1.67473,-6.76335 4.44449,-11.59432 9.85517,-17.005l5.0242,-5.0242l0,-5.15303c0,-15.84557 5.21744,-34.65412 15.20144,-54.62211c17.97119,-35.94238 51.01499,-72.72213 94.30044,-104.99298c39.22744,-29.24344 86.12001,-53.33386 130.30723,-66.98938c15.13702,-4.70214 31.17583,-8.56691 33.75234,-8.18043c8.11602,1.35267 11.91638,10.75695 6.82776,17.06941c-2.25445,2.76975 -5.0242,3.92919 -13.71994,5.92598c-39.42068,9.08221 -86.89296,30.40287 -126.57129,56.94098c-58.03599,38.71213 -100.67731,87.27944 -113.94637,129.85634c-2.44769,7.85837 -4.25125,17.06941 -4.25125,21.64272c0,2.57651 0.19324,2.83417 1.80356,3.15623c0.96619,0.19324 3.47829,0.83737 5.60392,1.35267c17.71354,4.5089 29.62992,24.34806 25.12102,41.80395c-3.22064,12.4961 -12.10962,22.35127 -23.5107,26.08721c-5.34627,1.80356 -14.36407,2.25445 -19.71034,1.03061zm15.84557,-22.80216c3.73595,-2.25445 6.44129,-7.27865 6.44129,-11.78756c0,-7.08542 -5.73275,-13.39788 -12.68934,-13.97759c-13.39788,-1.09502 -20.22564,15.39468 -10.11282,24.28365c4.89538,4.31566 10.82136,4.83097 16.36087,1.4815z"/>
    <path d="m341.3429,391.54635c-4.38008,-2.64093 -6.11922,-7.021 -4.95979,-11.91638c0.38648,-1.41708 1.86797,-6.95659 3.28506,-12.17403c5.0242,-18.29325 8.95339,-39.87157 11.5299,-64.21963c0.96619,-8.63132 1.15943,-16.36087 1.15943,-40.90217c0,-32.39967 -0.45089,-39.22744 -3.92919,-62.80255c-8.56691,-57.45628 -28.27725,-105.57269 -53.91357,-131.59549c-4.89538,-4.95979 -12.62492,-11.40108 -13.65553,-11.40108c-0.25765,0 -2.25445,1.80356 -4.5089,4.05801c-11.0146,11.14343 -27.5043,13.78435 -41.67513,6.76335c-7.85837,-3.9936 -15.26585,-13.26905 -17.58471,-22.09361c-1.22384,-4.76655 -1.22384,-14.36407 0,-18.93738c2.44769,-9.40428 10.17723,-18.55091 19.13062,-22.86657c18.67973,-8.95339 41.09541,0.12883 48.43848,19.71034c0.83737,2.25445 1.73915,5.66833 1.9968,7.66513l0.45089,3.54271l5.86157,3.92919c32.85056,21.90038 59.32425,70.46768 72.52889,132.88375c5.79716,27.43988 8.30926,50.75734 8.88898,81.48228c0.70854,43.0278 -2.83417,76.84455 -12.10962,114.01078c-4.70214,18.93738 -5.86157,21.70714 -10.17723,24.60572c-2.76975,1.86797 -7.85837,1.9968 -10.75695,0.25765zm-85.0894,-342.67646c0.90178,-0.32206 2.64093,-1.54591 3.92919,-2.70534c8.63132,-7.53631 5.41068,-20.86977 -5.86157,-24.15483c-4.5089,-1.35267 -8.69574,-0.19324 -12.62492,3.54271c-2.89858,2.64093 -3.92919,5.08862 -3.92919,9.72634c-0.06441,6.05481 2.44769,10.37047 7.66513,13.07581c2.12562,1.15943 8.37367,1.41708 10.82136,0.5153z"/>
    <path d="m244.2727,288.42134c-14.42848,-3.67153 -23.05981,-19.58151 -18.55091,-34.20323c2.31886,-7.40748 7.40748,-13.20464 14.55731,-16.42528c19.71034,-9.08221 41.80395,8.24485 37.42388,29.37227c-0.5153,2.5121 -1.73915,5.9904 -2.70534,7.79396c-2.57651,4.63773 -9.0178,10.43488 -13.59112,12.17403c-4.18684,1.61032 -13.14023,2.25445 -17.13382,1.28826z"/>
    <path d="m405.82018,285.58718c-4.5089,-1.93239 -6.89218,-7.34307 -5.53951,-12.36727c0.38648,-1.41708 1.86797,-3.92919 3.34947,-5.73275c5.0242,-5.9904 13.46229,-17.64913 18.10002,-24.86337c12.23845,-19.38827 19.25945,-37.5527 21.19183,-55.073c2.38328,-20.9986 -5.79716,-38.96979 -22.60892,-50.0488c-13.07581,-8.56691 -28.85697,-12.94699 -51.20823,-14.29966c-8.56691,-0.5153 -10.75695,-1.09502 -12.81816,-3.60712c-3.60712,-4.25125 -3.47829,-10.11282 0.32206,-14.42848c2.89858,-3.28506 5.21744,-3.80036 15.5235,-3.28506c48.052,2.38328 81.35345,23.96159 90.30684,58.5513c3.41388,13.0114 3.47829,25.05661 0.32206,40.64452c-3.73595,18.42208 -14.4929,41.41747 -29.11462,62.35166c-8.56691,12.23845 -15.33026,20.35447 -18.22884,21.77155c-2.96299,1.4815 -6.76335,1.61032 -9.59752,0.38648z"/>
    <path d="m61.14692,249.19391c-2.83417,-1.73915 -4.18684,-3.86477 -9.59752,-15.0082c-5.21744,-10.82136 -9.79076,-23.70394 -11.91638,-33.68793c-1.93239,-9.08221 -2.44769,-25.05661 -1.03061,-33.23704c7.60072,-44.63812 50.37086,-69.37266 113.55989,-65.63671c11.14343,0.64413 26.0228,2.44769 33.10821,3.92919c6.31246,1.35267 10.43488,7.40748 8.88898,13.0114c-0.77295,2.76975 -3.28506,5.92598 -5.79716,7.21424c-2.06121,1.09502 -6.69894,1.22384 -10.56371,0.32206c-6.82776,-1.54591 -26.08721,-3.22064 -37.5527,-3.22064c-26.79575,0.06441 -47.15022,5.53951 -62.15842,16.81176c-13.59112,10.24165 -20.61212,28.21284 -18.55091,47.27905c1.4815,13.33346 5.66833,26.21604 13.65553,41.93278c4.89538,9.79076 5.21744,11.46549 2.96299,15.78115c-2.76975,5.21744 -10.17723,7.47189 -15.0082,4.5089z"/>
  </g>
</svg>